<mxfile host="app.diagrams.net" modified="2024-04-27T08:37:14.314Z" agent="Mozilla/5.0 (Windows NT 10.0; Win64; x64) AppleWebKit/537.36 (KHTML, like Gecko) Chrome/124.0.0.0 Safari/537.36" etag="1bh4xAjVLY4nKTvvP2xn" version="24.2.2" type="device">
  <diagram name="Page-1" id="9LVx1_QeqAcmdIWjwYUG">
    <mxGraphModel dx="1050" dy="557" grid="1" gridSize="10" guides="1" tooltips="1" connect="1" arrows="1" fold="1" page="1" pageScale="1" pageWidth="827" pageHeight="1169" math="0" shadow="0">
      <root>
        <mxCell id="0" />
        <mxCell id="1" parent="0" />
        <mxCell id="e5EJ17haBVkcdHC8dCGw-1" value="Enter user details" style="shape=umlFrame;whiteSpace=wrap;html=1;pointerEvents=0;width=110;height=50;fontSize=13;" vertex="1" parent="1">
          <mxGeometry x="10" y="40" width="810" height="1120" as="geometry" />
        </mxCell>
        <mxCell id="e5EJ17haBVkcdHC8dCGw-2" value="" style="ellipse;html=1;shape=startState;fontSize=13;" vertex="1" parent="1">
          <mxGeometry x="289" y="80" width="30" height="30" as="geometry" />
        </mxCell>
        <mxCell id="e5EJ17haBVkcdHC8dCGw-3" value="" style="edgeStyle=orthogonalEdgeStyle;html=1;verticalAlign=bottom;endArrow=open;endSize=8;rounded=0;fontSize=13;" edge="1" source="e5EJ17haBVkcdHC8dCGw-2" parent="1">
          <mxGeometry relative="1" as="geometry">
            <mxPoint x="304" y="170" as="targetPoint" />
          </mxGeometry>
        </mxCell>
        <mxCell id="e5EJ17haBVkcdHC8dCGw-4" value="&lt;b style=&quot;font-size: 13px;&quot;&gt;Start&lt;/b&gt;" style="text;html=1;align=center;verticalAlign=middle;whiteSpace=wrap;rounded=0;fontSize=13;" vertex="1" parent="1">
          <mxGeometry x="274" y="60" width="60" height="30" as="geometry" />
        </mxCell>
        <mxCell id="e5EJ17haBVkcdHC8dCGw-5" value="&lt;b style=&quot;font-size: 13px;&quot;&gt;Display register form&lt;/b&gt;" style="rounded=1;whiteSpace=wrap;html=1;fontSize=13;" vertex="1" parent="1">
          <mxGeometry x="244" y="170" width="120" height="60" as="geometry" />
        </mxCell>
        <mxCell id="e5EJ17haBVkcdHC8dCGw-10" value="" style="edgeStyle=orthogonalEdgeStyle;html=1;verticalAlign=bottom;endArrow=open;endSize=8;rounded=0;fontSize=13;" edge="1" parent="1">
          <mxGeometry relative="1" as="geometry">
            <mxPoint x="303" y="290" as="targetPoint" />
            <mxPoint x="303" y="230" as="sourcePoint" />
          </mxGeometry>
        </mxCell>
        <mxCell id="e5EJ17haBVkcdHC8dCGw-11" value="" style="shape=line;html=1;strokeWidth=6;fontSize=13;" vertex="1" parent="1">
          <mxGeometry x="130" y="290" width="360" height="10" as="geometry" />
        </mxCell>
        <mxCell id="e5EJ17haBVkcdHC8dCGw-13" value="&lt;b style=&quot;font-size: 13px;&quot;&gt;Enter username&lt;/b&gt;" style="rounded=1;whiteSpace=wrap;html=1;fontSize=13;" vertex="1" parent="1">
          <mxGeometry x="154" y="360" width="120" height="60" as="geometry" />
        </mxCell>
        <mxCell id="e5EJ17haBVkcdHC8dCGw-14" value="&lt;b style=&quot;font-size: 13px;&quot;&gt;Enter Email&lt;/b&gt;" style="rounded=1;whiteSpace=wrap;html=1;fontSize=13;" vertex="1" parent="1">
          <mxGeometry x="350" y="360" width="120" height="60" as="geometry" />
        </mxCell>
        <mxCell id="e5EJ17haBVkcdHC8dCGw-16" value="" style="edgeStyle=orthogonalEdgeStyle;html=1;verticalAlign=bottom;endArrow=open;endSize=8;rounded=0;fontSize=13;" edge="1" parent="1">
          <mxGeometry relative="1" as="geometry">
            <mxPoint x="213.5" y="360" as="targetPoint" />
            <mxPoint x="213.5" y="300" as="sourcePoint" />
          </mxGeometry>
        </mxCell>
        <mxCell id="e5EJ17haBVkcdHC8dCGw-17" value="" style="edgeStyle=orthogonalEdgeStyle;html=1;verticalAlign=bottom;endArrow=open;endSize=8;rounded=0;fontSize=13;" edge="1" parent="1">
          <mxGeometry relative="1" as="geometry">
            <mxPoint x="409.5" y="360" as="targetPoint" />
            <mxPoint x="409.5" y="300" as="sourcePoint" />
          </mxGeometry>
        </mxCell>
        <mxCell id="e5EJ17haBVkcdHC8dCGw-28" value="" style="edgeStyle=orthogonalEdgeStyle;rounded=0;orthogonalLoop=1;jettySize=auto;html=1;fontSize=13;" edge="1" parent="1" source="e5EJ17haBVkcdHC8dCGw-18" target="e5EJ17haBVkcdHC8dCGw-27">
          <mxGeometry relative="1" as="geometry" />
        </mxCell>
        <mxCell id="e5EJ17haBVkcdHC8dCGw-18" value="" style="shape=line;html=1;strokeWidth=6;fontSize=13;" vertex="1" parent="1">
          <mxGeometry x="140" y="610" width="360" height="10" as="geometry" />
        </mxCell>
        <mxCell id="e5EJ17haBVkcdHC8dCGw-19" value="" style="html=1;verticalAlign=bottom;endArrow=open;endSize=8;rounded=0;entryX=0.21;entryY=0.7;entryDx=0;entryDy=0;entryPerimeter=0;fontSize=13;" edge="1" parent="1" target="e5EJ17haBVkcdHC8dCGw-18">
          <mxGeometry relative="1" as="geometry">
            <mxPoint x="213.5" y="480" as="targetPoint" />
            <mxPoint x="213.5" y="420" as="sourcePoint" />
          </mxGeometry>
        </mxCell>
        <mxCell id="e5EJ17haBVkcdHC8dCGw-20" value="" style="shape=rhombus;html=1;verticalLabelPosition=bottom;verticalAlignment=top;fontSize=13;" vertex="1" parent="1">
          <mxGeometry x="384" y="480" width="52" height="60" as="geometry" />
        </mxCell>
        <mxCell id="e5EJ17haBVkcdHC8dCGw-21" value="" style="edgeStyle=elbowEdgeStyle;html=1;elbow=horizontal;align=right;verticalAlign=bottom;endArrow=none;rounded=0;labelBackgroundColor=none;startArrow=open;startSize=12;fontSize=13;" edge="1" source="e5EJ17haBVkcdHC8dCGw-20" parent="1">
          <mxGeometry relative="1" as="geometry">
            <mxPoint x="410" y="420" as="targetPoint" />
          </mxGeometry>
        </mxCell>
        <mxCell id="e5EJ17haBVkcdHC8dCGw-22" value="&#xa;&lt;b style=&quot;forced-color-adjust: none; color: rgb(0, 0, 0); font-family: Helvetica; font-size: 13px; font-style: normal; font-variant-ligatures: normal; font-variant-caps: normal; letter-spacing: normal; orphans: 2; text-align: center; text-indent: 0px; text-transform: none; widows: 2; word-spacing: 0px; -webkit-text-stroke-width: 0px; white-space: nowrap; background-color: rgb(251, 251, 251); text-decoration-thickness: initial; text-decoration-style: initial; text-decoration-color: initial;&quot;&gt;&lt;font style=&quot;forced-color-adjust: none; font-size: 13px;&quot;&gt;[Invalid]&lt;/font&gt;&lt;/b&gt;&#xa;&#xa;" style="edgeStyle=elbowEdgeStyle;html=1;verticalAlign=bottom;endArrow=open;rounded=0;labelBackgroundColor=none;endSize=12;entryX=0;entryY=0.5;entryDx=0;entryDy=0;elbow=vertical;fontSize=13;" edge="1" source="e5EJ17haBVkcdHC8dCGw-20" parent="1" target="e5EJ17haBVkcdHC8dCGw-25">
          <mxGeometry y="-20" relative="1" as="geometry">
            <mxPoint x="540" y="510" as="targetPoint" />
            <mxPoint as="offset" />
          </mxGeometry>
        </mxCell>
        <mxCell id="e5EJ17haBVkcdHC8dCGw-23" value="" style="edgeStyle=elbowEdgeStyle;html=1;verticalAlign=bottom;endArrow=open;rounded=0;labelBackgroundColor=none;endSize=12;elbow=vertical;entryX=0.501;entryY=0.54;entryDx=0;entryDy=0;entryPerimeter=0;fontSize=13;" edge="1" source="e5EJ17haBVkcdHC8dCGw-20" parent="1" target="e5EJ17haBVkcdHC8dCGw-18">
          <mxGeometry relative="1" as="geometry">
            <mxPoint x="280" y="510" as="targetPoint" />
            <Array as="points">
              <mxPoint x="360" y="510" />
            </Array>
          </mxGeometry>
        </mxCell>
        <mxCell id="e5EJ17haBVkcdHC8dCGw-25" value="&lt;b style=&quot;font-size: 13px;&quot;&gt;Modify Email&lt;/b&gt;" style="rounded=1;whiteSpace=wrap;html=1;fontSize=13;" vertex="1" parent="1">
          <mxGeometry x="590" y="480" width="120" height="60" as="geometry" />
        </mxCell>
        <mxCell id="e5EJ17haBVkcdHC8dCGw-26" value="&lt;b style=&quot;forced-color-adjust: none; color: rgb(0, 0, 0); font-family: Helvetica; font-size: 13px; font-style: normal; font-variant-ligatures: normal; font-variant-caps: normal; letter-spacing: normal; orphans: 2; text-align: center; text-indent: 0px; text-transform: none; widows: 2; word-spacing: 0px; -webkit-text-stroke-width: 0px; white-space: nowrap; background-color: rgb(251, 251, 251); text-decoration-thickness: initial; text-decoration-style: initial; text-decoration-color: initial;&quot;&gt;&lt;font style=&quot;forced-color-adjust: none; font-size: 13px;&quot;&gt;[Valid]&lt;/font&gt;&lt;/b&gt;" style="text;whiteSpace=wrap;html=1;fontSize=13;" vertex="1" parent="1">
          <mxGeometry x="319" y="480" width="70" height="30" as="geometry" />
        </mxCell>
        <mxCell id="e5EJ17haBVkcdHC8dCGw-27" value="&lt;b style=&quot;font-size: 13px;&quot;&gt;Enter password with&lt;/b&gt;&lt;div style=&quot;font-size: 13px;&quot;&gt;&lt;b style=&quot;font-size: 13px;&quot;&gt;security requirment&lt;/b&gt;&lt;/div&gt;" style="rounded=1;whiteSpace=wrap;html=1;fontSize=13;" vertex="1" parent="1">
          <mxGeometry x="245" y="690" width="150" height="60" as="geometry" />
        </mxCell>
        <mxCell id="e5EJ17haBVkcdHC8dCGw-29" value="" style="shape=rhombus;html=1;verticalLabelPosition=bottom;verticalAlignment=top;fontSize=13;" vertex="1" parent="1">
          <mxGeometry x="295" y="810" width="52" height="60" as="geometry" />
        </mxCell>
        <mxCell id="e5EJ17haBVkcdHC8dCGw-30" value="" style="edgeStyle=elbowEdgeStyle;html=1;elbow=horizontal;align=right;verticalAlign=bottom;endArrow=none;rounded=0;labelBackgroundColor=none;startArrow=open;startSize=12;fontSize=13;" edge="1" parent="1" source="e5EJ17haBVkcdHC8dCGw-29">
          <mxGeometry relative="1" as="geometry">
            <mxPoint x="321" y="750" as="targetPoint" />
          </mxGeometry>
        </mxCell>
        <mxCell id="e5EJ17haBVkcdHC8dCGw-31" value="&lt;div style=&quot;font-size: 13px; text-wrap: wrap;&quot;&gt;&lt;b style=&quot;text-wrap: nowrap; font-size: 13px;&quot;&gt;&lt;font style=&quot;font-size: 13px;&quot;&gt;[meet the&lt;/font&gt;&lt;/b&gt;&lt;/div&gt;&lt;div style=&quot;font-size: 13px; text-wrap: wrap;&quot;&gt;&lt;b style=&quot;font-size: 13px; text-wrap: nowrap;&quot;&gt;&lt;font style=&quot;font-size: 13px;&quot;&gt;&amp;nbsp;minimum requirment]&lt;/font&gt;&lt;/b&gt;&lt;/div&gt;" style="edgeStyle=elbowEdgeStyle;html=1;verticalAlign=bottom;endArrow=open;rounded=0;labelBackgroundColor=none;endSize=12;entryX=0.5;entryY=0;entryDx=0;entryDy=0;elbow=vertical;fontSize=13;" edge="1" parent="1" source="e5EJ17haBVkcdHC8dCGw-29" target="e5EJ17haBVkcdHC8dCGw-35">
          <mxGeometry x="-0.3891" relative="1" as="geometry">
            <mxPoint x="501" y="840" as="targetPoint" />
            <mxPoint as="offset" />
            <Array as="points">
              <mxPoint x="360" y="840" />
            </Array>
          </mxGeometry>
        </mxCell>
        <mxCell id="e5EJ17haBVkcdHC8dCGw-32" value="" style="edgeStyle=elbowEdgeStyle;html=1;verticalAlign=bottom;endArrow=open;rounded=0;labelBackgroundColor=none;endSize=12;elbow=vertical;entryX=0;entryY=0.5;entryDx=0;entryDy=0;fontSize=13;" edge="1" parent="1" source="e5EJ17haBVkcdHC8dCGw-29" target="e5EJ17haBVkcdHC8dCGw-27">
          <mxGeometry relative="1" as="geometry">
            <mxPoint x="231" y="945" as="targetPoint" />
            <Array as="points">
              <mxPoint x="160" y="840" />
            </Array>
          </mxGeometry>
        </mxCell>
        <mxCell id="e5EJ17haBVkcdHC8dCGw-34" value="&lt;div style=&quot;font-size: 13px;&quot;&gt;&lt;b style=&quot;text-wrap: nowrap; font-size: 13px;&quot;&gt;&lt;font style=&quot;font-size: 13px;&quot;&gt;[Not meeting&lt;/font&gt;&lt;/b&gt;&lt;/div&gt;&lt;div style=&quot;font-size: 13px;&quot;&gt;&lt;b style=&quot;forced-color-adjust: none; color: rgb(0, 0, 0); font-family: Helvetica; font-size: 13px; font-style: normal; font-variant-ligatures: normal; font-variant-caps: normal; letter-spacing: normal; orphans: 2; text-indent: 0px; text-transform: none; widows: 2; word-spacing: 0px; -webkit-text-stroke-width: 0px; white-space: nowrap; background-color: rgb(251, 251, 251); text-decoration-thickness: initial; text-decoration-style: initial; text-decoration-color: initial;&quot;&gt;&lt;font style=&quot;forced-color-adjust: none; font-size: 13px;&quot;&gt;&amp;nbsp;minimum requirment]&lt;/font&gt;&lt;/b&gt;&lt;/div&gt;" style="text;whiteSpace=wrap;html=1;align=center;fontSize=13;" vertex="1" parent="1">
          <mxGeometry x="160" y="800" width="140" height="50" as="geometry" />
        </mxCell>
        <mxCell id="e5EJ17haBVkcdHC8dCGw-37" value="" style="edgeStyle=orthogonalEdgeStyle;rounded=0;orthogonalLoop=1;jettySize=auto;html=1;fontSize=13;" edge="1" parent="1" source="e5EJ17haBVkcdHC8dCGw-35" target="e5EJ17haBVkcdHC8dCGw-36">
          <mxGeometry relative="1" as="geometry" />
        </mxCell>
        <mxCell id="e5EJ17haBVkcdHC8dCGw-35" value="&lt;b style=&quot;font-size: 13px;&quot;&gt;Submit the form&lt;/b&gt;" style="rounded=1;whiteSpace=wrap;html=1;fontSize=13;" vertex="1" parent="1">
          <mxGeometry x="436" y="930" width="120" height="60" as="geometry" />
        </mxCell>
        <mxCell id="e5EJ17haBVkcdHC8dCGw-36" value="" style="ellipse;html=1;shape=endState;fontSize=13;" vertex="1" parent="1">
          <mxGeometry x="481" y="1030" width="30" height="30" as="geometry" />
        </mxCell>
        <mxCell id="e5EJ17haBVkcdHC8dCGw-38" value="&lt;b style=&quot;font-size: 13px;&quot;&gt;Stop&lt;/b&gt;" style="text;html=1;align=center;verticalAlign=middle;whiteSpace=wrap;rounded=0;fontSize=13;" vertex="1" parent="1">
          <mxGeometry x="466" y="1060" width="60" height="30" as="geometry" />
        </mxCell>
      </root>
    </mxGraphModel>
  </diagram>
</mxfile>
